<?xml version="1.0" ?><svg height="32px" style="enable-background:new 0 0 32 32;" version="1.1" viewBox="0 0 32 32" width="32px" xml:space="preserve" xmlns="http://www.w3.org/2000/svg" xmlns:xlink="http://www.w3.org/1999/xlink"><style type="text/css">
	.st0{fill:none;stroke:#434345;stroke-width:2;stroke-linecap:round;stroke-linejoin:round;stroke-miterlimit:10;}
	.st1{fill:#434345;}
</style><g id="Layer_2"/><g id="Layer_1"><g><polyline class="st0" points="19.66306,26 1,26 1,6 26,6 26,8   "/><line class="st0" x1="16.72" x2="11" y1="12.78" y2="18.5"/><polyline class="st0" points="12.66667,20.16667 5.16667,12.66667 1,16   "/><circle class="st0" cx="10.16667" cy="11" r="1.66667"/><path class="st0" d="M27.72277,8h-1.8198l0,6.35744c0,1.30774-0.90333,2.4994-2.1525,2.62963    c-1.43658,0.14977-2.64743-1.02139-2.64743-2.48706V8h-1.8198c-0.89989,0-1.67904,0.65106-1.87425,1.56614l-1.35723,6.36211    c-0.1424,0.66752,0.05245,1.36455,0.51663,1.84807L19.66306,21v8h7.67988v-8l3.09468-3.22367    c0.46417-0.48352,0.65903-1.18056,0.51663-1.84807l-1.35723-6.36211C29.4018,8.65106,28.62265,8,27.72277,8z"/></g></g></svg>