<?xml version="1.0" ?><!DOCTYPE svg  PUBLIC '-//W3C//DTD SVG 1.1//EN'  'http://www.w3.org/Graphics/SVG/1.1/DTD/svg11.dtd'><svg enable-background="new 0 0 64 64" id="Layer_1" version="1.1" viewBox="0 0 64 64" xml:space="preserve" xmlns="http://www.w3.org/2000/svg" xmlns:xlink="http://www.w3.org/1999/xlink"><g><rect fill="#64798A" height="64" width="64"/><rect fill="#3A556A" height="8" width="64" y="56"/></g><g><path d="M35.4,26.8c-4,0-7.3,3.3-7.3,7.3c0,4,3.3,7.3,7.3,7.3s7.3-3.3,7.3-7.3C42.7,30.1,39.4,26.8,35.4,26.8z    M35.4,39.5c-3,0-5.4-2.4-5.4-5.4s2.4-5.4,5.4-5.4c3,0,5.4,2.4,5.4,5.4S38.4,39.5,35.4,39.5z" fill="#FFFFFF"/><circle cx="35.4" cy="34.1" fill="#FFFFFF" r="3.9"/><path d="M48.4,23h-6.7c-0.4,0-0.7-0.3-0.8-0.6l-0.8-2.8c-0.1-0.5-0.5-0.8-1-0.8h-7.5c-0.5,0-0.9,0.3-1,0.8l-0.8,2.8   C29.8,22.7,29.4,23,29,23h-7.7v-1.2c0-0.4-0.4-0.8-0.8-0.8h-2.6c-0.4,0-0.8,0.4-0.8,0.8V23h-1.6c-0.6,0-1.1,0.5-1.1,1.1v20.2   c0,0.6,0.5,1.1,1.1,1.1h32.9c0.6,0,1.1-0.5,1.1-1.1V24C49.5,23.4,49,23,48.4,23z M22.1,41.4c0,0.4-0.3,0.8-0.8,0.8   s-0.8-0.3-0.8-0.8V26.8c0-0.4,0.3-0.8,0.8-0.8s0.8,0.3,0.8,0.8V41.4z M35.4,42.9c-4.8,0-8.8-3.9-8.8-8.8s3.9-8.8,8.8-8.8   s8.8,3.9,8.8,8.8S40.3,42.9,35.4,42.9z" fill="#FFFFFF"/></g></svg>